<svg width="29" height="29" viewBox="0 0 29 29" fill="none" xmlns="http://www.w3.org/2000/svg">
<path d="M5.07495 21.75H23.925" stroke="white" stroke-width="3" stroke-linecap="round"/>
<path d="M15.5 5.07495C15.5 4.52267 15.0523 4.07495 14.5 4.07495C13.9477 4.07495 13.5 4.52267 13.5 5.07495H15.5ZM13.7929 18.8321C14.1834 19.2226 14.8166 19.2226 15.2071 18.8321L21.5711 12.4681C21.9616 12.0776 21.9616 11.4444 21.5711 11.0539C21.1805 10.6634 20.5474 10.6634 20.1569 11.0539L14.5 16.7107L8.84315 11.0539C8.45262 10.6634 7.81946 10.6634 7.42893 11.0539C7.03841 11.4444 7.03841 12.0776 7.42893 12.4681L13.7929 18.8321ZM14.5 5.07495H13.5V18.125H14.5H15.5V5.07495H14.5Z" fill="white"/>
<rect x="1" y="1" width="27" height="27" rx="3" stroke="white" stroke-width="2"/>
</svg>
