<svg width="29" height="29" viewBox="0 0 29 29" fill="none" xmlns="http://www.w3.org/2000/svg">
<path d="M19 6H6C3.79086 6 2 7.79086 2 10V23C2 25.2091 3.79086 27 6 27H19C21.2091 27 23 25.2091 23 23V10H25V25C25 27.2091 23.2091 29 21 29H4C1.79086 29 0 27.2091 0 25V8C3.54346e-07 5.79086 1.79086 4 4 4H19V6Z" fill="black"/>
<path d="M16.2318 12.3598C15.8782 12.7841 15.9355 13.4147 16.3598 13.7682C16.7841 14.1218 17.4147 14.0645 17.7682 13.6402L16.2318 12.3598ZM27.9959 0.909465C27.9459 0.359448 27.4595 -0.0458941 26.9095 0.00410708L17.9464 0.818929C17.3964 0.86893 16.9911 1.35534 17.0411 1.90536C17.0911 2.45537 17.5775 2.86072 18.1275 2.81071L26.0946 2.08643L26.8189 10.0536C26.8689 10.6036 27.3553 11.0089 27.9054 10.9589C28.4554 10.9089 28.8607 10.4225 28.8107 9.8725L27.9959 0.909465ZM17 13L17.7682 13.6402L27.7682 1.64018L27 1L26.2318 0.359816L16.2318 12.3598L17 13Z" fill="black"/>
</svg>
