<svg width="29" height="29" viewBox="0 0 29 29" fill="none" xmlns="http://www.w3.org/2000/svg">
<path d="M19 6.00006H6C3.79086 6.00006 2 7.79092 2 10.0001V23.0001C2 25.2092 3.79086 27.0001 6 27.0001H19C21.2091 27.0001 23 25.2092 23 23.0001V10.0001H25V25.0001C25 27.2092 23.2091 29.0001 21 29.0001H4C1.79086 29.0001 0 27.2092 0 25.0001V8.00006C3.54346e-07 5.79092 1.79086 4.00006 4 4.00006H19V6.00006Z" fill="white"/>
<path d="M16.2318 12.3599C15.8782 12.7842 15.9355 13.4147 16.3598 13.7683C16.7841 14.1218 17.4147 14.0645 17.7682 13.6402L16.2318 12.3599ZM27.9959 0.909526C27.9459 0.359509 27.4595 -0.0458331 26.9095 0.00416812L17.9464 0.81899C17.3964 0.868991 16.9911 1.3554 17.0411 1.90542C17.0911 2.45543 17.5775 2.86078 18.1275 2.81078L26.0946 2.08649L26.8189 10.0536C26.8689 10.6037 27.3553 11.009 27.9054 10.959C28.4554 10.909 28.8607 10.4226 28.8107 9.87256L27.9959 0.909526ZM17 13.0001L17.7682 13.6402L27.7682 1.64025L27 1.00006L26.2318 0.359877L16.2318 12.3599L17 13.0001Z" fill="white"/>
</svg>
