<svg width="196" height="76" viewBox="0 0 196 76" fill="none" xmlns="http://www.w3.org/2000/svg">
<g clip-path="url(#clip0_37_1471)">
<mask id="mask0_37_1471" style="mask-type:luminance" maskUnits="userSpaceOnUse" x="0" y="0" width="196" height="76">
<path d="M196 0H0V76H196V0Z" fill="white"/>
</mask>
<g mask="url(#mask0_37_1471)">
<path d="M167.299 45.8681V30.6538H170.433V40.1512L175.042 30.6538H178.474V45.8681H175.386V36.5074L170.871 45.8681H167.299ZM173.175 29.2875C171.931 29.2875 170.641 28.4901 169.858 27.693L170.756 26.0989C171.539 26.7593 172.391 27.3057 173.129 27.3057C173.82 27.3057 174.719 26.7592 175.571 26.1669L176.377 27.693C175.778 28.399 174.419 29.2875 173.175 29.2875Z" fill="black"/>
<path fill-rule="evenodd" clip-rule="evenodd" d="M6.85097 34.3246C6.85097 50.3583 19.9992 63.356 36.2183 63.356C52.4372 63.356 65.5853 50.3583 65.5853 34.3246C65.5853 18.2914 52.4372 5.29355 36.2183 5.29355C19.9992 5.29355 6.85097 18.2914 6.85097 34.3246Z" fill="url(#paint0_radial_37_1471)"/>
<path d="M38.4406 0C17.2103 0 0 17.0132 0 38.0002C0 58.9868 17.2103 75.9999 38.4406 75.9999C59.6708 75.9999 76.8813 58.9868 76.8813 38.0002C76.8813 17.0132 59.6707 0 38.4406 0ZM9.66459 34.2442C9.66459 19.8444 21.2104 8.11737 35.6493 7.59993C30.2371 17.1963 16.7958 29.0743 16.5211 40.3919C16.3379 47.9378 19.1362 53.8626 23.6385 57.6123C15.3091 53.0727 9.66459 44.3114 9.66459 34.2442ZM49.6691 57.5995C53.9149 54.0281 56.6727 48.4729 56.8453 41.3483C57.0358 33.5043 50.9283 24.8219 45.5175 16.8997C45.185 16.3771 44.9471 16.0617 44.9471 16.0617C44.9471 16.0617 40.9674 23.0195 36.6689 29.0343C32.3692 35.0498 30.5707 45.1462 38.1553 49.2923C38.1553 49.2923 34.0634 45.1092 39.2827 37.7552C40.7629 35.6707 43.0589 32.7087 44.8776 29.859C47.3687 34.0054 49.2374 38.014 49.1616 41.1661C48.9602 49.473 43.9318 54.7252 36.3515 54.5454C28.7712 54.3655 24.0035 48.8811 24.205 40.5744C24.3033 36.5305 27.6638 31.2303 31.4345 26.0586C31.7245 25.6331 32.1671 25.0333 32.7857 24.2308C32.932 24.0348 33.0789 23.8388 33.2255 23.6443C38.1047 16.9804 38.1744 10.9372 37.6595 7.6003C52.0871 8.13004 63.6208 19.8524 63.6208 34.2441C63.6208 44.302 57.9861 53.0564 49.6691 57.5995Z" fill="black"/>
<path d="M95.34 14.556C96.1681 15.2381 96.6973 16.4896 96.6973 17.4447V18.3544C96.6973 21.3568 95.1557 22.267 91.6583 22.267H90.9221C90.2315 22.267 89.4264 22.221 88.7592 22.221H88.414V20.0831C89.4034 20.0831 90.3929 20.129 91.3594 20.129C92.9238 20.129 93.5913 19.651 93.5913 18.241V17.4221C93.5913 16.1483 93.0391 15.7159 92.1182 15.7159H89.4264V13.4641H92.1182C93.039 13.4641 93.5913 13.032 93.5913 11.758V10.8255C93.5913 9.18793 92.5558 9.07426 91.3594 9.07426C90.6232 9.07426 89.1043 9.16531 88.414 9.18793V7.00441C89.6335 6.98185 90.8762 6.89053 92.0495 6.89053C94.6034 6.89053 96.6973 7.41389 96.6973 10.6664V11.8037C96.6285 13.1911 96.1682 13.9192 95.34 14.556Z" fill="black"/>
<path d="M97.643 22.2438L101.854 7.07251H106.041L110.344 22.2438H107.399L106.272 18.4682H101.693L100.658 22.2438H97.643ZM102.314 15.966H105.627L103.971 9.68833L102.314 15.966Z" fill="black"/>
<path d="M120.935 7.07251V9.41532H115.091V22.2438H111.984V7.07251H120.935Z" fill="black"/>
<path d="M121.339 14.6242C121.339 8.86955 121.96 6.82253 126.768 6.82253C130.864 6.82253 132.36 7.77765 132.36 14.6242C132.36 21.1524 130.956 22.4261 126.768 22.4261C122.673 22.358 121.339 21.0616 121.339 14.6242ZM129.299 14.6242C129.231 10.4846 128.931 9.02889 126.838 9.02889C124.858 9.02889 124.467 9.80189 124.467 14.6242C124.467 20.0377 125.066 20.2199 126.838 20.2199C128.954 20.2199 129.253 19.3096 129.299 14.6242Z" fill="black"/>
<path d="M134.45 22.2438V7.07251H139.857C142.595 7.07251 144.803 7.86835 144.803 10.9394V12.6906C144.803 14.533 143.33 16.1936 141.353 16.5118C140.823 16.6028 140.547 16.6028 137.578 16.6028V22.2437L134.45 22.2438ZM137.578 14.3511H139.788C140.823 14.3511 141.767 14.1466 141.767 12.6908V10.9621C141.767 9.46076 140.777 9.25603 139.788 9.25603H137.578V14.3511Z" fill="black"/>
<path d="M153.648 20.3332C154.638 20.3106 155.649 20.2423 156.708 20.1742V21.9711C155.258 22.244 153.832 22.4941 151.762 22.4487C148.632 22.4033 146.422 21.2663 146.422 15.4431C146.422 10.3709 146.698 6.89052 151.739 6.86816C151.899 6.86816 154.499 6.91335 156.708 7.20886V9.21048C154.016 9.00623 152.773 9.02884 152.428 9.02884C149.759 9.02884 149.506 10.8029 149.506 15.5342C149.506 19.8783 150.956 20.4699 153.648 20.3332Z" fill="black"/>
<path d="M158.616 22.2441V7.04964H161.7V13.419H162.759L166.186 7.04964H169.545L165.496 14.3967L169.73 22.2441H166.417L162.827 15.6705H161.7V22.2441H158.616Z" fill="black"/>
<path d="M171.232 22.2441V7.04964H174.36V16.5348L178.963 7.04964H182.391V22.2441H179.308V12.8953L174.798 22.2441H171.232Z" fill="black"/>
<path d="M184.841 22.2438V7.04946H187.969V16.5346L192.572 7.04946H196V22.2438H192.916V12.8952L188.406 22.2438H184.841ZM190.708 5.68514C189.465 5.68514 188.177 4.88882 187.395 4.09272L188.292 2.50031C189.075 3.1599 189.925 3.70609 190.662 3.70609C191.353 3.70609 192.25 3.1599 193.101 2.5688L193.906 4.09272C193.307 4.79798 191.95 5.68514 190.708 5.68514Z" fill="black"/>
<path d="M92.3998 45.8681V33H88.414V30.6768H99.542V33H95.5563V45.8681H92.3998Z" fill="black"/>
<path d="M101.259 45.8681V30.6768H106.673C109.415 30.6768 111.627 31.4739 111.627 34.5485V36.3024C111.627 38.1471 110.152 39.81 108.171 40.1286C107.641 40.2197 107.364 40.2197 104.392 40.2197V45.8681H101.259ZM104.392 37.965H106.604C107.641 37.965 108.585 37.7603 108.585 36.3024V34.5719C108.585 33.0683 107.595 32.8631 106.604 32.8631H104.392V37.965Z" fill="black"/>
<path d="M118.109 45.8225H115.483L116.612 41.6548H115.943L112.395 30.5627H115.506L117.602 37.874L119.698 30.5627H122.763L118.109 45.8225Z" fill="black"/>
<path d="M124.352 45.8681V30.6768H133.153V32.9546H127.486V36.3248C130.596 36.3248 131.103 36.3479 131.656 36.4163C133.591 36.6439 135.135 37.5776 135.135 40.2427V41.9961C135.135 45.0483 132.924 45.8681 130.182 45.8681H124.352ZM127.486 43.6814H130.089C131.103 43.6814 132.094 43.4538 132.094 41.9735V40.2427C132.094 38.7621 131.126 38.5799 130.089 38.5799H127.486V43.6814Z" fill="black"/>
<path d="M144.694 45.8683V39.2407H140.155V45.8683H137.022V30.654H140.155V36.963H144.694V30.654H147.828V45.8683H144.694Z" fill="black"/>
<path d="M153.387 30.6769V36.3255C154.746 36.3255 155.691 36.2801 156.428 36.2801C159.17 36.2801 161.059 37.4415 161.059 40.2428V41.9965C161.059 45.0484 158.87 45.8681 156.105 45.8681H150.299V30.6768L153.387 30.6769ZM153.387 43.6817H156.036C157.051 43.6817 158.018 43.4541 158.018 41.9739V40.2428C158.018 38.7626 157.074 38.5802 156.036 38.5802H153.387V43.6817ZM165.229 45.8682H162.188V30.6769H165.229V45.8682Z" fill="black"/>
<path d="M95.406 61.8318C96.2421 62.5208 96.7762 63.7836 96.7762 64.7484V65.6669C96.7762 68.698 95.2203 69.6161 91.6894 69.6161H90.9462C90.2494 69.6161 89.4362 69.5704 88.7627 69.5704H88.4143V67.412C89.4131 67.412 90.4118 67.4579 91.3878 67.4579C92.9668 67.4579 93.6405 66.9756 93.6405 65.552V64.7256C93.6405 63.4395 93.083 63.0033 92.1539 63.0033H89.4362V60.7297H92.1539C93.083 60.7297 93.6405 60.2935 93.6405 59.0076V58.0661C93.6405 56.4132 92.5955 56.2984 91.3878 56.2984C90.644 56.2984 89.1111 56.3897 88.4143 56.4132V54.2084C89.6453 54.1858 90.8998 54.0938 92.0843 54.0938C94.6631 54.0938 96.7763 54.622 96.7763 57.9055V59.0534C96.7067 60.4543 96.242 61.1895 95.406 61.8318Z" fill="black"/>
<path d="M97.7316 69.5935L101.983 54.278H106.21L110.553 69.5935H107.581L106.443 65.7819H101.82L100.775 69.5935H97.7316ZM102.447 63.2564H105.792L104.12 56.9182L102.447 63.2564Z" fill="black"/>
<path d="M112.208 69.5931V54.2541H116.389C119.27 54.2541 121.848 54.599 121.848 58.1808V59.1678C121.848 60.5 121.314 61.2348 120.501 61.855C121.384 62.5207 121.848 63.8071 121.848 64.7708V65.6896C121.848 68.7895 120.152 69.5932 116.389 69.5932L112.208 69.5931ZM115.321 56.4354V60.8215H117.272C118.132 60.8215 118.736 60.3851 118.736 59.1224V58.3649C118.736 56.5503 117.9 56.4354 116.483 56.4354H115.321ZM115.321 67.4347H116.483C117.992 67.4347 118.735 66.9757 118.735 65.5519V64.7482C118.735 63.4622 118.132 63.0491 117.272 63.0491H115.321V67.4347Z" fill="black"/>
<path d="M123.737 61.9013C123.737 56.0915 124.365 54.0252 129.219 54.0252C133.353 54.0252 134.864 54.9893 134.864 61.9013C134.864 68.4912 133.447 69.7771 129.219 69.7771C125.084 69.7082 123.737 68.3994 123.737 61.9013ZM131.774 61.9013C131.705 57.7218 131.403 56.2524 129.289 56.2524C127.291 56.2524 126.896 57.0327 126.896 61.9013C126.896 67.366 127.5 67.5496 129.289 67.5496C131.426 67.5496 131.728 66.6313 131.774 61.9013Z" fill="black"/>
<path d="M147.869 54.278V67.3894H149.355V72.7165H146.266V69.5936H138.647V72.7165H135.581V67.3894H136.975C138.438 64.7946 138.484 62.6361 138.484 59.329V54.278H147.869ZM141.597 56.4817V60.7073C141.597 62.8887 141.481 64.7258 140.203 67.3894H144.756V56.4817H141.597Z" fill="black"/>
</g>
</g>
<defs>
<radialGradient id="paint0_radial_37_1471" cx="0" cy="0" r="1" gradientUnits="userSpaceOnUse" gradientTransform="translate(36.2183 34.3248) scale(57.2743 56.618)">
<stop stop-color="#F37032"/>
<stop offset="0.0392157" stop-color="#F37032"/>
<stop offset="0.831373" stop-color="#F04C2F"/>
<stop offset="1" stop-color="#F04C2F"/>
</radialGradient>
<clipPath id="clip0_37_1471">
<rect width="196" height="76" fill="white"/>
</clipPath>
</defs>
</svg>
