<svg width="16" height="16" viewBox="0 0 16 16" fill="none" xmlns="http://www.w3.org/2000/svg">
<path d="M2.80005 12H13.2" stroke="white" stroke-linecap="round"/>
<path d="M8.5 2.80029C8.5 2.52415 8.27614 2.30029 8 2.30029C7.72386 2.30029 7.5 2.52415 7.5 2.80029H8H8.5ZM7.64645 10.3538C7.84171 10.5491 8.15829 10.5491 8.35355 10.3538L11.5355 7.17187C11.7308 6.9766 11.7308 6.66002 11.5355 6.46476C11.3403 6.2695 11.0237 6.2695 10.8284 6.46476L8 9.29319L5.17157 6.46476C4.97631 6.2695 4.65973 6.2695 4.46447 6.46476C4.2692 6.66002 4.2692 6.9766 4.46447 7.17187L7.64645 10.3538ZM8 2.80029H7.5V10.0003H8H8.5V2.80029H8Z" fill="white"/>
<rect x="0.5" y="0.5" width="15" height="15" rx="3.5" stroke="white"/>
</svg>
