<svg width="11" height="12" viewBox="0 0 11 12" fill="none" xmlns="http://www.w3.org/2000/svg">
<path d="M7.03711 2.479H1.74121C1.18893 2.479 0.741211 2.92672 0.741211 3.479V9.729C0.741437 10.2811 1.18907 10.729 1.74121 10.729H7.51855C8.07068 10.729 8.51833 10.2811 8.51855 9.729V4.05029H9.25879V10.5142C9.25879 11.0664 8.81107 11.5142 8.25879 11.5142H1C0.447716 11.5142 0 11.0664 0 10.5142V2.69287C0 2.14059 0.447715 1.69287 1 1.69287H7.03711V2.479Z" fill="white"/>
<path d="M5.92176 4.89737C5.75116 5.11452 5.7806 5.43881 5.9875 5.62169C6.1944 5.80458 6.50042 5.7768 6.67101 5.55966L6.29639 5.22852L5.92176 4.89737ZM10.4834 0.470367C10.4577 0.187504 10.2205 -0.0221644 9.95361 0.0020606L5.60373 0.396829C5.3368 0.421054 5.14122 0.669998 5.16689 0.952862C5.19256 1.23573 5.42976 1.44539 5.69669 1.42117L9.56325 1.07026L9.9351 5.16762C9.96077 5.45048 10.198 5.66015 10.4649 5.63593C10.7318 5.6117 10.9274 5.36276 10.9017 5.07989L10.4834 0.470367ZM6.29639 5.22852L6.67101 5.55966L10.3747 0.845373L10.0001 0.51423L9.62546 0.183088L5.92176 4.89737L6.29639 5.22852Z" fill="white"/>
</svg>
