<svg width="17" height="12" viewBox="0 0 17 12" fill="none" xmlns="http://www.w3.org/2000/svg">
<path d="M4.26172 0.768555L4.42676 1.46191H16.6523L16.3174 2.71973L14.8555 8.20215L14.8291 8.2998L14.418 9.12207L14.2539 9.04004V9.6748H12.7793C13.0106 9.87578 13.1572 10.1715 13.1572 10.502C13.1572 11.1075 12.6661 11.5986 12.0605 11.5986C11.4552 11.5984 10.9648 11.1074 10.9648 10.502C10.9649 10.1714 11.1114 9.87578 11.3428 9.6748H7.66211C7.89352 9.87579 8.04095 10.1714 8.04102 10.502C8.04102 11.1074 7.5498 11.5985 6.94434 11.5986C6.33879 11.5986 5.84766 11.1075 5.84766 10.502C5.84773 10.1713 5.99503 9.87579 6.22656 9.6748H4.32715L4.14355 8.90625L2.49902 2H0V0H4.0791L4.26172 0.768555ZM5.90723 7.6748H12.9053L12.9492 7.58594L14.0498 3.46191H4.90332L5.90723 7.6748Z" fill="white"/>
</svg>
