<svg width="17" height="20" viewBox="0 0 17 20" fill="none" xmlns="http://www.w3.org/2000/svg">
<path d="M8.66809 0C12.8102 0 16.1681 3.35786 16.1681 7.5C16.1681 11.6421 12.8102 15 8.66809 15C7.76765 15 6.90449 14.8407 6.10461 14.5498L7.21497 12.8047C7.67796 12.9312 8.16497 13 8.66809 13C11.7057 13 14.1681 10.5376 14.1681 7.5C14.1681 4.46243 11.7057 2 8.66809 2C5.63052 2 3.16809 4.46243 3.16809 7.5C3.16809 8.56753 3.47278 9.56369 3.99915 10.4072L2.84387 12.2227C1.79696 10.9331 1.16809 9.29043 1.16809 7.5C1.16809 3.35786 4.52596 0 8.66809 0Z" fill="black"/>
<path d="M7.00012 9.5547L1.00012 18.5547" stroke="black" stroke-width="2" stroke-linecap="round"/>
</svg>
