<svg width="185" height="300" viewBox="0 0 185 300" fill="none" xmlns="http://www.w3.org/2000/svg">
<path d="M150 0C162.052 1.38889e-07 173.771 1.42333 185 4.10742V38.6475C173.274 33.5391 160.437 30.5019 146.952 30.001C148.962 43.1731 148.689 67.0279 129.649 93.333C129.078 94.1005 128.504 94.8742 127.934 95.6475C125.52 98.8151 123.793 101.184 122.661 102.863C107.947 123.278 94.834 144.199 94.4502 160.162C93.6641 192.952 112.269 214.601 141.848 215.312C161.489 215.783 176.739 206.799 185 191.109V295.892C173.771 298.576 162.052 300 150 300C67.1565 300 0 232.843 0 150.001C2.68314e-05 67.1573 67.1566 0 150 0ZM139.107 30C82.7656 32.0427 37.7129 78.3335 37.7129 135.175C37.7129 174.914 59.7377 209.497 92.2402 227.417C74.6718 212.616 63.753 189.228 64.4678 159.442C65.5397 114.768 117.989 67.8804 139.107 30ZM175.389 63.4014C175.389 63.4014 176.318 64.646 177.615 66.709C180.055 70.3228 182.53 73.9779 185 77.6621V136.435C182.267 130.436 178.875 124.191 175.118 117.865C168.021 129.114 159.062 140.806 153.286 149.034C132.946 178.026 148.846 194.533 148.887 194.575C119.291 178.209 126.308 138.355 143.086 114.609C159.859 90.8666 175.389 63.4014 175.389 63.4014Z" fill="black"/>
</svg>
