<svg width="72" height="72" viewBox="0 0 72 72" fill="none" xmlns="http://www.w3.org/2000/svg">
<circle cx="36" cy="36" r="36" fill="white"/>
<g clip-path="url(#clip0_63_2052)">
<path fill-rule="evenodd" clip-rule="evenodd" d="M72 36C72 55.8822 55.8822 72 36 72C16.1178 72 0 55.8822 0 36C0 16.1178 16.1178 0 36 0C55.8822 0 72 16.1178 72 36ZM37.2901 26.5768C33.7885 28.0332 26.7904 31.0476 16.2957 35.62C14.5915 36.2977 13.6988 36.9606 13.6175 37.6089C13.4802 38.7045 14.8521 39.1359 16.7204 39.7234C16.9745 39.8033 17.2379 39.8861 17.5078 39.9738C19.3459 40.5713 21.8185 41.2703 23.1039 41.2981C24.2698 41.3233 25.5712 40.8426 27.0079 39.856C36.8135 33.237 41.8751 29.8914 42.1929 29.8193C42.4171 29.7684 42.7278 29.7044 42.9383 29.8915C43.1488 30.0786 43.1281 30.433 43.1058 30.528C42.9699 31.1074 37.5844 36.1143 34.7974 38.7053C33.9285 39.5131 33.3122 40.0861 33.1862 40.2169C32.904 40.51 32.6164 40.7873 32.3399 41.0538C30.6323 42.7 29.3517 43.9345 32.4108 45.9504C33.8809 46.9191 35.0573 47.7202 36.2309 48.5194C37.5125 49.3923 38.7909 50.2628 40.4448 51.347C40.8662 51.6232 41.2687 51.9101 41.6607 52.1896C43.1522 53.2529 44.4922 54.2082 46.1478 54.0559C47.1097 53.9674 48.1034 53.0628 48.608 50.3651C49.8006 43.9894 52.1449 30.1754 52.6867 24.4829C52.7341 23.9842 52.6744 23.3459 52.6265 23.0657C52.5785 22.7855 52.4783 22.3863 52.1141 22.0908C51.6828 21.7408 51.0169 21.667 50.7191 21.6723C49.3651 21.6961 47.2877 22.4185 37.2901 26.5768Z" fill="black"/>
</g>
<defs>
<clipPath id="clip0_63_2052">
<rect width="72" height="72" fill="white"/>
</clipPath>
</defs>
</svg>
