<svg width="77" height="44" viewBox="0 0 77 44" fill="none" xmlns="http://www.w3.org/2000/svg">
<rect x="3.92041" y="4.92029" width="72" height="34" rx="15.5" fill="white" stroke="black"/>
<mask id="path-3-inside-1_72_2709" fill="white">
<path d="M41.0005 39.4203H19.4204C10.5839 39.4203 3.42041 32.2568 3.42041 23.4203V20.4203C3.42041 11.5837 10.5839 4.42029 19.4204 4.42029H41.0005V39.4203Z"/>
</mask>
<path d="M41.0005 39.4203H19.4204C10.5839 39.4203 3.42041 32.2568 3.42041 23.4203V20.4203C3.42041 11.5837 10.5839 4.42029 19.4204 4.42029H41.0005V39.4203Z" fill="black"/>
<path d="M41.0005 39.4203V40.4203H42.0005V39.4203H41.0005ZM3.42041 23.4203H2.42041H3.42041ZM41.0005 4.42029H42.0005V3.42029H41.0005V4.42029ZM41.0005 39.4203V38.4203H19.4204V39.4203V40.4203H41.0005V39.4203ZM19.4204 39.4203V38.4203C11.1361 38.4203 4.42041 31.7046 4.42041 23.4203H3.42041H2.42041C2.42041 32.8091 10.0316 40.4203 19.4204 40.4203V39.4203ZM3.42041 23.4203H4.42041V20.4203H3.42041H2.42041V23.4203H3.42041ZM3.42041 20.4203H4.42041C4.42041 12.136 11.1361 5.42029 19.4204 5.42029V4.42029V3.42029C10.0316 3.42029 2.42041 11.0314 2.42041 20.4203H3.42041ZM19.4204 4.42029V5.42029H41.0005V4.42029V3.42029H19.4204V4.42029ZM41.0005 4.42029H40.0005V39.4203H41.0005H42.0005V4.42029H41.0005Z" fill="black" mask="url(#path-3-inside-1_72_2709)"/>
<path d="M61.4204 11.4203C62.1036 11.4203 62.7717 11.4857 63.4204 11.6049C58.3005 12.5456 54.4204 17.0283 54.4204 22.4203C54.4204 27.8122 58.3005 32.2939 63.4204 33.2347C62.7716 33.354 62.1037 33.4203 61.4204 33.4203C55.3453 33.4203 50.4204 28.4954 50.4204 22.4203C50.4204 16.3452 55.3453 11.4203 61.4204 11.4203Z" fill="black"/>
<circle cx="21.9204" cy="21.9203" r="7" fill="white" stroke="white"/>
<line x1="21.9204" y1="13.4203" x2="21.9204" y2="6.42029" stroke="white"/>
<line x1="21.9204" y1="37.4203" x2="21.9204" y2="30.4203" stroke="white"/>
<line x1="30.4204" y1="21.9203" x2="37.4204" y2="21.9203" stroke="white"/>
<line x1="6.42041" y1="21.9203" x2="13.4204" y2="21.9203" stroke="white"/>
<line x1="15.9101" y1="15.9098" x2="10.9604" y2="10.9601" stroke="white"/>
<line x1="32.8803" y1="32.8804" x2="27.9306" y2="27.9307" stroke="white"/>
<line x1="27.9306" y1="15.9099" x2="32.8804" y2="10.9601" stroke="white"/>
<line x1="10.9604" y1="32.8805" x2="15.9102" y2="27.9307" stroke="white"/>
</svg>
