<svg width="77" height="44" viewBox="0 0 77 44" fill="none" xmlns="http://www.w3.org/2000/svg">
<rect x="3.42032" y="4.42032" width="73" height="35" rx="16" fill="black"/>
<mask id="path-3-inside-1_52_1533" fill="white">
<path d="M41.0004 39.4203H19.4203C10.5838 39.4203 3.42032 32.2569 3.42032 23.4203V20.4203C3.42032 11.5838 10.5838 4.42032 19.4203 4.42032H41.0004V39.4203Z"/>
</mask>
<path d="M41.0004 39.4203H19.4203C10.5838 39.4203 3.42032 32.2569 3.42032 23.4203V20.4203C3.42032 11.5838 10.5838 4.42032 19.4203 4.42032H41.0004V39.4203Z" fill="white"/>
<path d="M41.0004 39.4203V40.4203H42.0004V39.4203H41.0004ZM3.42032 23.4203H2.42032H3.42032ZM41.0004 4.42032H42.0004V3.42032H41.0004V4.42032ZM41.0004 39.4203V38.4203H19.4203V39.4203V40.4203H41.0004V39.4203ZM19.4203 39.4203V38.4203C11.136 38.4203 4.42032 31.7046 4.42032 23.4203H3.42032H2.42032C2.42032 32.8092 10.0315 40.4203 19.4203 40.4203V39.4203ZM3.42032 23.4203H4.42032V20.4203H3.42032H2.42032V23.4203H3.42032ZM3.42032 20.4203H4.42032C4.42032 12.136 11.136 5.42032 19.4203 5.42032V4.42032V3.42032C10.0315 3.42032 2.42032 11.0315 2.42032 20.4203H3.42032ZM19.4203 4.42032V5.42032H41.0004V4.42032V3.42032H19.4203V4.42032ZM41.0004 4.42032H40.0004V39.4203H41.0004H42.0004V4.42032H41.0004Z" fill="black" mask="url(#path-3-inside-1_52_1533)"/>
<path d="M61.4203 11.4203C62.1035 11.4203 62.7716 11.4857 63.4203 11.6049C58.3004 12.5456 54.4203 17.0284 54.4203 22.4203C54.4203 27.8122 58.3004 32.294 63.4203 33.2348C62.7715 33.354 62.1036 33.4203 61.4203 33.4203C55.3452 33.4203 50.4203 28.4955 50.4203 22.4203C50.4203 16.3452 55.3452 11.4203 61.4203 11.4203Z" fill="white"/>
<circle cx="21.9203" cy="21.9203" r="7.5" fill="black"/>
<line x1="21.9203" y1="13.4203" x2="21.9203" y2="6.42031" stroke="black"/>
<line x1="21.9203" y1="37.4203" x2="21.9203" y2="30.4203" stroke="black"/>
<line x1="30.4203" y1="21.9203" x2="37.4203" y2="21.9203" stroke="black"/>
<line x1="6.42032" y1="21.9203" x2="13.4203" y2="21.9203" stroke="black"/>
<line x1="15.9099" y1="15.9099" x2="10.9602" y2="10.9602" stroke="black"/>
<line x1="32.8805" y1="32.8805" x2="27.9307" y2="27.9307" stroke="black"/>
<line x1="27.9307" y1="15.9099" x2="32.8805" y2="10.9602" stroke="black"/>
<line x1="10.9602" y1="32.8805" x2="15.9099" y2="27.9307" stroke="black"/>
</svg>
