<svg width="72" height="72" viewBox="0 0 72 72" fill="none" xmlns="http://www.w3.org/2000/svg">
<circle cx="36" cy="36" r="36" fill="white"/>
<g clip-path="url(#clip0_63_2053)">
<path fill-rule="evenodd" clip-rule="evenodd" d="M5.06119 5.06119C0 10.1224 0 18.2682 0 34.56V37.44C0 53.7318 0 61.8776 5.06119 66.9389C10.1224 72 18.2682 72 34.56 72H37.44C53.7318 72 61.8776 72 66.9389 66.9389C72 61.8776 72 53.7318 72 37.44V34.56C72 18.2682 72 10.1224 66.9389 5.06119C61.8776 0 53.7318 0 37.44 0H34.56C18.2682 0 10.1224 0 5.06119 5.06119ZM12.1502 21.9002C12.5402 40.6201 21.9002 51.8702 38.3102 51.8702H39.2403V41.1601C45.2703 41.7602 49.83 46.1702 51.66 51.8702H60.1801C57.8401 43.3502 51.6898 38.6402 47.8498 36.8401C51.6898 34.6202 57.0898 29.2201 58.3798 21.9002H50.6397C48.9597 27.8401 43.9803 33.2402 39.2403 33.7501V21.9002H31.5V42.6601C26.7 41.4601 20.6402 35.6401 20.3701 21.9002H12.1502Z" fill="black"/>
</g>
<defs>
<clipPath id="clip0_63_2053">
<rect width="72" height="72" rx="36" fill="white"/>
</clipPath>
</defs>
</svg>
