<svg width="72" height="72" viewBox="0 0 72 72" fill="none" xmlns="http://www.w3.org/2000/svg">
<circle cx="36" cy="36" r="36" fill="black"/>
<g clip-path="url(#clip0_63_2049)">
<path d="M58.0368 25.95C58.0368 25.95 57.5827 22.7441 56.1841 21.3364C54.4131 19.4836 52.4332 19.4746 51.525 19.3656C45.0223 18.8933 35.2591 18.8933 35.2591 18.8933H35.2409C35.2409 18.8933 25.4777 18.8933 18.975 19.3656C18.0668 19.4746 16.0869 19.4836 14.3159 21.3364C12.9173 22.7441 12.4723 25.95 12.4723 25.95C12.4723 25.95 12 29.7191 12 33.4791V37.0029C12 40.7628 12.4632 44.5319 12.4632 44.5319C12.4632 44.5319 12.9173 47.7378 14.3068 49.1456C16.0778 50.9983 18.4028 50.9347 19.4382 51.1345C23.1618 51.4887 35.25 51.5977 35.25 51.5977C35.25 51.5977 45.0223 51.5795 51.525 51.1164C52.4332 51.0074 54.4131 50.9983 56.1841 49.1456C57.5827 47.7378 58.0368 44.5319 58.0368 44.5319C58.0368 44.5319 58.5 40.7719 58.5 37.0029V33.4791C58.5 29.7191 58.0368 25.95 58.0368 25.95ZM30.4456 41.2805V28.2115L43.0061 34.7687L30.4456 41.2805Z" fill="white"/>
</g>
<defs>
<clipPath id="clip0_63_2049">
<rect width="46.5" height="46.5" fill="white" transform="translate(12 12)"/>
</clipPath>
</defs>
</svg>
