<svg xmlns="http://www.w3.org/2000/svg" width="452" height="390" fill="none" viewBox="0 0 452 390"><mask id="a" fill="#fff"><path d="m200.965 156.935 8.573-33.948-.965-.265-8.736 34.597-14.993 5.108 7.416-29.367-.965-.264-7.58 30.015-14.992 5.109 6.259-24.787-.965-.264-6.423 25.436-14.993 5.109 5.103-20.207-.965-.264-5.266 20.855-14.993 5.108 3.946-15.626-.964-.264-4.11 16.274-14.993 5.11 2.789-11.046-.964-.264-2.953 11.694-14.992 5.109 1.631-6.466-.964-.264-1.796 7.114-14.993 5.109.475-1.885-.964-.264-.64 2.533-10.552 3.595 149.405-86.674-9.884 39.135zm16.12-5.493 9.73-38.529-.922-.252 17.212-9.985-11.026 43.657zm16.121-5.494 10.887-43.108-.863-.237 17.137-9.942-12.168 48.179zm16.122-5.492 12.043-47.69-.806-.22 17.065-9.9-13.309 52.7zm16.121-5.494 13.2-52.27-.746-.204 16.991-9.858-14.452 57.224zm16.121-5.493 14.357-56.85-.689-.188 16.919-9.816-15.594 61.746zm16.121-5.492 15.514-61.431-.63-.172 16.845-9.772-16.737 66.266zm28.472-9.702-12.352 4.209 16.672-66.012-.572-.156 16.772-9.73-17.86 70.716zm3.795-1.387 17.803-70.49-.513-.14 16.698-9.687-18.891 74.8zm16.232-5.932 18.849-74.63-.455-.125 16.626-9.645-19.923 78.883zm16.232-5.931 19.894-78.773-.395-.109 16.551-9.602-20.953 82.967zm16.232-5.933 20.94-82.914-.337-.092 16.478-9.56-21.984 87.05zm16.232-5.93 21.986-87.057-.278-.076.737-.429-1.133 57.434-6.216 24.61zm16.232-5.933 4.993-19.767-.358 18.073z"/></mask><path fill="#fff" d="m200.965 156.935 8.573-33.948-.965-.265-8.736 34.597-14.993 5.108 7.416-29.367-.965-.264-7.58 30.015-14.992 5.109 6.259-24.787-.965-.264-6.423 25.436-14.993 5.109 5.103-20.207-.965-.264-5.266 20.855-14.993 5.108 3.946-15.626-.964-.264-4.11 16.274-14.993 5.11 2.789-11.046-.964-.264-2.953 11.694-14.992 5.109 1.631-6.466-.964-.264-1.796 7.114-14.993 5.109.475-1.885-.964-.264-.64 2.533-10.552 3.595 149.405-86.674-9.884 39.135zm16.12-5.493 9.73-38.529-.922-.252 17.212-9.985-11.026 43.657zm16.121-5.494 10.887-43.108-.863-.237 17.137-9.942-12.168 48.179zm16.122-5.492 12.043-47.69-.806-.22 17.065-9.9-13.309 52.7zm16.121-5.494 13.2-52.27-.746-.204 16.991-9.858-14.452 57.224zm16.121-5.493 14.357-56.85-.689-.188 16.919-9.816-15.594 61.746zm16.121-5.492 15.514-61.431-.63-.172 16.845-9.772-16.737 66.266zm28.472-9.702-12.352 4.209 16.672-66.012-.572-.156 16.772-9.73-17.86 70.716zm3.795-1.387 17.803-70.49-.513-.14 16.698-9.687-18.891 74.8zm16.232-5.932 18.849-74.63-.455-.125 16.626-9.645-19.923 78.883zm16.232-5.931 19.894-78.773-.395-.109 16.551-9.602-20.953 82.967zm16.232-5.933 20.94-82.914-.337-.092 16.478-9.56-21.984 87.05zm16.232-5.93 21.986-87.057-.278-.076.737-.429-1.133 57.434-6.216 24.61zm16.232-5.933 4.993-19.767-.358 18.073z"/><path fill="#000" d="m200.965 156.935-.97-.245-.451 1.785 1.743-.594zm8.573-33.948.969.244.24-.95-.945-.259zm-.965-.265.264-.964-.984-.269-.249.989zm-8.736 34.597.322.946.514-.175.133-.526zm-14.993 5.108-.97-.245-.451 1.785 1.743-.593zm7.416-29.367.969.245.24-.951-.945-.259zm-.965-.264.264-.965-.984-.269-.249.989zm-7.58 30.015.323.947.514-.175.133-.527zm-14.992 5.109-.97-.245-.451 1.786 1.743-.594zm6.259-24.787.969.245.24-.95-.945-.259zm-.965-.264.264-.964-.983-.269-.25.989zm-6.423 25.436.322.946.515-.175.132-.526zm-14.993 5.109-.969-.245-.451 1.785 1.743-.593zm5.103-20.207.969.245.241-.951-.946-.259zm-.965-.264.265-.965-.984-.269-.25.989zm-5.266 20.855.323.947.514-.175.133-.527zm-14.993 5.108-.97-.244-.45 1.785 1.743-.594zm3.946-15.626.97.245.24-.95-.946-.259zm-.964-.264.264-.964-.984-.27-.25.989zm-4.11 16.274.323.947.514-.175.133-.527zm-14.993 5.11-.969-.245-.451 1.785 1.743-.594zm2.789-11.046.97.245.24-.951-.946-.259zm-.964-.264.264-.965-.984-.269-.25.989zm-2.953 11.694.323.946.514-.175.133-.527zm-14.992 5.109-.97-.245-.45 1.785 1.742-.594zm1.631-6.466.97.245.24-.95-.946-.259zm-.964-.264.264-.964-.984-.27-.25.989zm-1.796 7.114.322.947.514-.175.133-.527zm-14.993 5.109-.97-.245-.45 1.785 1.742-.594zm.475-1.885.97.244.24-.95-.946-.259zm-.964-.264.264-.965-.984-.269-.25.989zm-.64 2.533.323.946.514-.175.133-.527zm-10.552 3.595-.502-.865.824 1.812zm149.405-86.674.97.245.581-2.301-2.052 1.191zm-9.884 39.135.323.946.514-.175.133-.526zm1.128-.384-.969-.245-.451 1.785 1.743-.594zm9.73-38.529.97.245.24-.951-.946-.259zm-.922-.252-.502-.865-2.067 1.199 2.305.63zm17.212-9.985.969.244.581-2.3-2.052 1.191zm-11.026 43.657.322.947.514-.175.133-.527zm1.127-.385-.969-.244-.451 1.785 1.743-.594zm10.887-43.108.97.244.24-.95-.945-.259zm-.863-.237-.502-.865-2.066 1.198 2.303.631zm17.137-9.942.97.245.581-2.3-2.053 1.19zm-12.168 48.179.323.947.514-.175.133-.527zm1.129-.384-.969-.245-.451 1.785 1.743-.594zm12.043-47.69.97.245.24-.95-.945-.26zm-.806-.22-.501-.866-2.066 1.199 2.303.63zm17.065-9.9.97.245.581-2.3-2.052 1.19zm-13.309 52.7.322.947.514-.175.133-.527zm1.128-.384-.97-.245-.451 1.786 1.743-.594zm13.2-52.27.97.246.24-.95-.946-.26zm-.746-.204-.502-.865-2.066 1.199 2.303.63zm16.991-9.858.969.245.581-2.3-2.052 1.19zm-14.452 57.224.323.947.514-.175.133-.527zm1.128-.385-.97-.245-.451 1.786 1.743-.594zm14.357-56.85.97.245.24-.95-.946-.26zm-.689-.188-.501-.865-2.067 1.198 2.304.631zm16.919-9.816.969.245.581-2.3-2.052 1.19zm-15.594 61.746.322.946.514-.175.133-.526zm1.128-.384-.97-.245-.451 1.785 1.743-.594zm15.514-61.431.969.245.241-.951-.946-.259zm-.63-.172-.501-.866-2.067 1.2 2.305.63zm16.845-9.772.969.244.581-2.3-2.052 1.19zm-16.737 66.266.323.946.514-.175.133-.526zm13.48-4.593.322.946.011-.003.01-.004zm-12.352 4.209-.969-.245-.451 1.785 1.743-.594zm16.672-66.012.969.245.24-.95-.945-.26zm-.572-.156-.502-.865-2.067 1.2 2.306.63zm16.772-9.73.97.245.581-2.3-2.053 1.19zm-17.86 70.716.343.94.497-.182.13-.513zm1.135-.414-.969-.245-.463 1.833 1.776-.649zm17.803-70.49.969.246.24-.95-.945-.26zm-.513-.14-.502-.865-2.064 1.198 2.301.631zm16.698-9.687.97.245.581-2.3-2.053 1.19zm-18.891 74.8.343.94.497-.182.129-.513zm1.135-.415-.969-.245-.463 1.833 1.776-.649zm18.849-74.63.969.244.24-.951-.946-.258zm-.455-.125-.502-.865-2.068 1.2 2.307.63zm16.626-9.645.969.245.581-2.3-2.052 1.19zm-19.923 78.883.343.939.497-.181.129-.513zm1.135-.414-.969-.245-.463 1.833 1.775-.649zm19.894-78.773.97.245.24-.95-.945-.26zm-.395-.109-.502-.864-2.065 1.198 2.302.63zm16.551-9.602.97.245.581-2.3-2.053 1.19zm-20.953 82.967.343.94.497-.182.129-.513zm1.135-.415-.969-.245-.463 1.833 1.776-.65zm20.94-82.915.97.245.24-.95-.945-.259zm-.337-.092-.502-.865-2.066 1.198 2.303.631zm16.478-9.56.97.245.581-2.3-2.053 1.19zm-21.984 87.05.343.94.497-.182.129-.513zm1.135-.414-.97-.245-.462 1.833 1.775-.65zm21.986-87.057.97.245.24-.95-.946-.26zm-.278-.076-.503-.865-2.062 1.2 2.301.63zm.737-.429 1 .02.035-1.778-1.538.894zm-1.133 57.434.97.245.028-.111.002-.115zm-6.216 24.61.344.94.497-.181.129-.513zm1.136-.415-.969-.245-.463 1.834 1.775-.65zm4.993-19.767 1 .02-1.97-.265zm-.358 18.073.343.94.643-.236.014-.684zm-214.788 75.4.969.245 8.573-33.949-.969-.244-.97-.245-8.573 33.948zm8.573-33.948.264-.965-.965-.264-.264.964-.264.965.965.264zm-.965-.265-.969-.244-8.737 34.596.97.245.969.245 8.737-34.597zm-8.736 34.597-.323-.947-14.993 5.109.323.946.322.947 14.993-5.109zm-14.993 5.108.969.245 7.416-29.367-.969-.245-.97-.245-7.416 29.367zm7.416-29.367.264-.965-.965-.264-.264.965-.264.964.965.264zm-.965-.264-.969-.245-7.58 30.015.969.245.97.245 7.58-30.015zm-7.58 30.015-.322-.946-14.993 5.109.323.946.322.947 14.993-5.109zm-14.992 5.109.969.245 6.259-24.787-.969-.245-.97-.244-6.259 24.786zm6.259-24.787.264-.964-.965-.264-.264.964-.264.965.965.264zm-.965-.264-.969-.244-6.424 25.435.97.245.969.245 6.424-25.436zm-6.423 25.436-.323-.947-14.992 5.109.322.947.323.947 14.992-5.11zm-14.993 5.109.97.245 5.102-20.207-.969-.245-.97-.245-5.102 20.207zm5.103-20.207.264-.965-.964-.264-.265.965-.264.964.965.264zm-.965-.264-.969-.245-5.266 20.855.969.245.97.245 5.266-20.855zm-5.266 20.855-.322-.946-14.993 5.108.322.946.323.947 14.993-5.108zm-14.993 5.108.97.245 3.946-15.626-.97-.245-.97-.244-3.946 15.626zm3.946-15.626.264-.964-.964-.264-.264.964-.264.965.964.264zm-.964-.264-.97-.245-4.11 16.275.97.244.97.245 4.109-16.274zm-4.11 16.274-.323-.946-14.992 5.109.322.947.323.946 14.993-5.109zm-14.993 5.11.97.244 2.789-11.045-.97-.245-.969-.245-2.789 11.046zm2.789-11.046.264-.965-.964-.264-.264.965-.264.964.964.264zm-.964-.264-.97-.245-2.952 11.694.969.245.97.244 2.952-11.693zm-2.953 11.694-.322-.947-14.993 5.109.323.947.322.946 14.993-5.109zm-14.992 5.109.969.244 1.632-6.465-.97-.245-.969-.244-1.632 6.465zm1.631-6.466.264-.964-.964-.264-.264.964-.264.965.964.264zm-.964-.264-.97-.245-1.796 7.115.97.244.969.245 1.796-7.114zm-1.796 7.114-.323-.946-14.993 5.108.323.947.322.946 14.993-5.108zm-14.993 5.109.97.244.475-1.885-.97-.244-.97-.245-.475 1.885zm.475-1.885.264-.965-.964-.264-.264.965-.264.964.964.264zm-.964-.264-.97-.245-.639 2.533.97.245.97.244.638-2.533zm-.64 2.533-.322-.947-10.553 3.596.323.946.322.947 10.553-3.596zm-10.552 3.595.501.865 149.406-86.674-.502-.865-.501-.865L75.934 198.5zm149.405-86.674-.969-.245-9.884 39.135.969.245.97.245 9.884-39.135zm-9.884 39.135-.322-.947-14.993 5.109.323.947.322.946 14.993-5.109zm1.128-.384.97.244 9.73-38.528-.97-.245-.969-.245-9.73 38.529zm9.73-38.529.264-.965-.922-.252-.264.965-.264.964.923.253zm-.922-.252.502.865 17.212-9.985-.502-.865-.502-.865-17.212 9.985zm17.212-9.985-.97-.245-11.026 43.657.97.245.969.245 11.026-43.658zm-11.026 43.657-.323-.946-14.993 5.108.322.947.323.946 14.993-5.108zm1.127-.385.97.245 10.887-43.109-.97-.244-.969-.245-10.887 43.109zm10.887-43.108.265-.965-.864-.237-.264.965-.265.964.864.237zm-.863-.237.501.865 17.138-9.942-.502-.865-.502-.865-17.137 9.942zm17.137-9.942-.969-.245-12.168 48.179.969.245.97.245 12.168-48.18zm-12.168 48.179-.322-.946-14.993 5.108.322.946.323.947 14.993-5.108zm1.129-.384.97.244 12.043-47.689-.97-.245-.969-.245-12.043 47.69zm12.043-47.69.265-.964-.806-.221-.265.964-.264.965.806.22zm-.806-.22.502.864 17.065-9.9-.502-.864-.501-.865-17.065 9.9zm17.065-9.9-.969-.245-13.31 52.701.97.244.969.245 13.31-52.7zm-13.309 52.7-.323-.946-14.992 5.109.322.947.323.946 14.992-5.109zm1.128-.384.969.245 13.201-52.27-.97-.244-.969-.245-13.201 52.269zm13.2-52.27.264-.964-.746-.204-.264.964-.265.965.747.204zm-.746-.204.501.865 16.991-9.857-.501-.865-.502-.865-16.991 9.857zm16.991-9.858-.97-.244-14.452 57.223.97.245.97.245 14.451-57.224zm-14.452 57.224-.322-.946-14.994 5.108.323.946.322.947 14.994-5.108zm1.128-.385.969.245 14.358-56.85-.97-.245-.97-.245-14.357 56.85zm14.357-56.85.264-.964-.689-.189-.264.965-.264.964.689.189zm-.689-.188.502.865 16.919-9.816-.502-.865-.502-.865-16.918 9.816zm16.919-9.816-.97-.245-15.594 61.746.97.245.969.245 15.594-61.746zm-15.594 61.746-.323-.947-14.993 5.109.323.946.322.947 14.993-5.109zm1.128-.384.969.245 15.514-61.431-.969-.245-.97-.245-15.514 61.431zm15.514-61.431.264-.965-.63-.172-.264.965-.263.964.629.172zm-.63-.172.502.864 16.845-9.772-.502-.864-.502-.865-16.844 9.771zm16.845-9.772-.97-.245-16.736 66.266.969.245.97.245 16.736-66.267zm-16.737 66.266-.322-.947-14.993 5.109.323.947.322.946 14.993-5.109zm13.48-4.593-.323-.947-12.351 4.209.322.947.323.946 12.351-4.209zm-12.352 4.209.97.244 16.671-66.01-.969-.246-.97-.245-16.671 66.012zm16.672-66.012.264-.964-.572-.157-.264.965-.263.965.571.156zm-.572-.156.502.865 16.772-9.73-.502-.865-.502-.865-16.772 9.73zm16.772-9.73-.97-.245-17.859 70.717.969.244.97.245 17.86-70.716zm-17.86 70.716-.343-.939-2.661.972.344.94.343.939 2.66-.972zm1.135-.414.97.245 17.802-70.49-.969-.244-.97-.245-17.802 70.489zm17.803-70.49.264-.964-.512-.14-.265.964-.265.964.513.141zm-.513-.14.502.865 16.698-9.687-.502-.865-.502-.865-16.698 9.687zm16.698-9.687-.969-.245-18.892 74.801.97.244.969.245 18.892-74.8zm-18.891 74.8-.343-.939-15.097 5.517.343.939.344.939 15.096-5.516zm1.135-.415.97.245 18.848-74.63-.969-.246-.97-.245-18.848 74.631zm18.849-74.63.263-.965-.455-.124-.263.964-.263.965.454.124zm-.455-.125.502.865 16.625-9.645-.501-.865-.502-.865-16.626 9.645zm16.626-9.645-.97-.245-19.923 78.883.97.245.969.245 19.923-78.883zm-19.923 78.883-.343-.939-15.097 5.517.343.939.344.939 15.096-5.517zm1.135-.414.97.245 19.894-78.773-.97-.245-.969-.245-19.894 78.773zm19.894-78.773.265-.964-.396-.109-.264.964-.265.965.396.108zm-.395-.109.502.865 16.551-9.602-.502-.865-.502-.865-16.551 9.603zm16.551-9.602-.97-.245-20.953 82.967.97.245.969.245 20.954-82.967zm-20.953 82.967-.344-.94-15.096 5.518.343.939.343.939 15.097-5.517zm1.135-.415.97.244 20.94-82.914-.97-.245-.969-.244-20.94 82.914zm20.94-82.915.265-.964-.338-.093-.264.965-.265.964.338.093zm-.337-.092.501.865 16.479-9.56-.502-.865-.502-.865-16.478 9.56zm16.478-9.56-.969-.245-21.985 87.05.97.245.969.245 21.985-87.05zm-21.984 87.05-.343-.94-15.097 5.517.343.94.344.939 15.096-5.517zm1.135-.414.97.244L417.842 2.35l-.97-.245-.969-.245-21.987 87.057zm21.986-87.057.264-.965-.278-.076-.264.965-.264.964.278.077zm-.278-.076.503.864.737-.428-.503-.865-.503-.864-.737.428zm.737-.429-1-.02-1.133 57.434 1 .02 1 .02 1.133-57.434zm-1.133 57.434-.969-.245-6.216 24.611.969.245.97.245 6.216-24.611zm-6.216 24.61-.343-.938-15.096 5.516.343.94.343.939 15.097-5.517zm1.136-.415.97.245 4.992-19.768-.969-.244-.97-.245-4.992 19.767zm4.993-19.767-1-.02-.358 18.073 1 .02 1 .02.358-18.074zm-.358 18.073-.343-.939-4.635 1.694.343.94.343.938 4.635-1.694z" mask="url(#a)"/><path stroke="#000" stroke-width="2" d="m416.747.865-353.034 205m352.953 4-240.23 138M74.309 202.444c40.163-14.762 90.527 8.758 112.365 52.884 21.839 44.127 6.674 91.731-33.489 106.493-40.163 14.761-90.527-8.759-112.365-52.886-21.838-44.126-6.674-91.73 33.489-106.491Z"/><path stroke="#000" stroke-width="2" d="M78.608 214.393c34.065-12.52 76.818 7.424 95.364 44.898s5.656 77.87-28.41 90.39c-34.065 12.52-76.817-7.423-95.364-44.898-18.546-37.475-5.656-77.869 28.41-90.39Z"/></svg>